<svg id="svg" version="1.1" xmlns="http://www.w3.org/2000/svg" xmlns:xlink="http://www.w3.org/1999/xlink" width="400" height="400" viewBox="0, 0, 400,400"><g id="svgg"><path id="path0" d="M180.448 73.057 C 162.384 75.842,145.089 84.559,132.349 97.299 C 127.571 102.077,126.616 104.507,128.722 106.525 C 130.731 108.450,131.548 108.083,137.000 102.798 C 177.290 63.748,241.245 75.473,263.556 126.000 C 265.918 131.349,266.078 131.632,267.227 132.484 C 267.791 132.904,269.411 133.412,270.827 133.614 C 280.385 134.980,282.520 135.390,285.766 136.476 C 318.755 147.520,331.144 187.206,310.255 214.923 C 305.522 221.203,305.212 222.048,306.982 223.818 C 309.336 226.172,312.096 224.621,316.543 218.446 C 333.518 194.868,330.773 163.123,310.024 143.077 C 300.171 133.558,288.675 128.275,274.815 126.897 C 272.169 126.634,271.774 126.486,271.347 125.600 C 271.082 125.050,269.868 122.530,268.649 120.000 C 252.871 87.251,215.924 67.587,180.448 73.057 M119.926 115.260 C 116.310 116.570,110.681 131.773,108.558 145.959 C 107.417 153.589,107.832 152.848,104.069 153.969 C 68.410 164.588,61.021 213.230,91.901 234.068 C 100.446 239.834,106.616 241.320,124.124 241.830 L 133.648 242.107 133.524 252.443 C 133.371 265.198,133.711 264.505,127.499 264.725 L 123.400 264.870 122.669 263.056 C 117.308 249.753,97.006 253.823,97.006 268.200 C 97.006 282.347,116.382 286.849,122.358 274.091 L 123.288 272.103 127.944 271.818 C 138.992 271.141,140.496 268.913,140.722 252.900 L 140.876 242.000 152.838 242.000 L 164.800 242.000 164.800 247.418 C 164.800 253.649,165.321 254.800,168.138 254.800 C 171.119 254.800,171.909 252.882,171.971 245.500 L 172.000 242.000 184.000 242.000 L 196.000 242.000 196.000 253.336 C 196.000 271.256,196.325 276.761,197.448 277.884 C 198.591 279.027,200.744 279.098,202.056 278.036 L 203.000 277.271 203.112 259.636 L 203.224 242.000 215.412 242.000 L 227.600 242.000 227.633 262.700 C 227.676 290.507,227.798 292.466,229.637 295.027 C 232.065 298.406,233.972 299.279,240.020 299.776 L 245.182 300.200 246.214 302.274 C 252.386 314.680,271.744 310.060,271.663 296.200 C 271.580 282.054,251.820 277.836,245.997 290.721 L 245.057 292.800 241.361 292.800 C 234.469 292.800,235.027 295.115,234.877 265.900 L 234.754 242.000 246.744 242.000 L 258.734 242.000 258.867 253.100 C 259.019 265.766,259.052 265.914,262.408 268.931 C 264.760 271.046,266.182 271.482,271.867 271.834 L 276.333 272.110 276.984 273.813 C 277.726 275.757,281.041 279.095,283.449 280.323 C 294.320 285.869,306.879 273.522,301.412 262.665 C 296.244 252.403,281.854 252.376,277.008 262.619 L 275.977 264.800 272.648 264.800 C 265.958 264.800,266.000 264.882,266.000 251.740 L 266.000 242.000 266.900 241.990 C 286.832 241.758,303.069 235.407,297.631 229.969 C 296.096 228.434,295.544 228.480,290.484 230.565 C 288.128 231.535,284.554 232.803,282.542 233.381 L 278.883 234.433 194.542 234.307 L 110.200 234.180 107.000 233.284 C 70.124 222.955,70.552 171.176,107.603 160.437 C 114.201 158.525,114.088 158.682,115.232 149.800 C 116.591 139.254,118.193 133.225,121.730 125.356 C 124.578 119.019,124.864 117.282,123.290 115.900 C 122.299 115.031,121.159 114.814,119.926 115.260 M113.075 262.663 C 118.080 265.037,117.539 272.182,112.200 274.221 C 106.981 276.214,101.801 269.781,104.910 265.169 C 106.906 262.206,110.068 261.235,113.075 262.663 M292.404 262.900 C 296.354 265.588,296.663 269.943,293.119 272.976 C 290.233 275.446,286.608 274.993,284.221 271.863 C 280.195 266.585,286.949 259.188,292.404 262.900 M166.528 266.075 C 165.051 266.790,164.846 268.245,164.688 279.200 C 164.489 292.979,164.580 292.800,157.770 292.800 L 154.459 292.800 153.486 290.700 C 147.551 277.884,127.894 282.071,127.816 296.167 C 127.739 309.960,146.615 314.695,153.108 302.512 L 154.364 300.156 159.482 299.742 C 166.541 299.171,169.675 297.188,171.081 292.404 C 171.785 290.010,172.096 269.545,171.456 267.696 C 170.880 266.030,168.346 265.197,166.528 266.075 M197.947 290.204 C 196.534 290.972,196.400 291.444,196.121 296.665 L 195.879 301.165 193.776 302.194 C 181.305 308.296,185.906 327.744,199.800 327.663 C 213.735 327.581,218.205 308.271,205.693 302.200 L 203.220 301.000 203.210 296.680 C 203.195 290.255,201.559 288.242,197.947 290.204 M144.404 290.900 C 148.354 293.588,148.663 297.943,145.119 300.976 C 142.233 303.446,138.608 302.993,136.221 299.863 C 132.195 294.585,138.949 287.188,144.404 290.900 M261.075 290.663 C 266.080 293.037,265.539 300.182,260.200 302.221 C 254.981 304.214,249.801 297.781,252.910 293.169 C 254.906 290.206,258.068 289.235,261.075 290.663 M203.636 309.426 C 205.503 311.200,206.116 312.652,205.909 314.805 C 205.279 321.362,196.624 322.624,193.937 316.551 C 191.400 310.816,199.127 305.139,203.636 309.426 " stroke="none" fill="#050505" fill-rule="evenodd"></path><path id="path1" d="M185.600 0.254 C 168.121 1.778,153.012 4.766,138.000 9.667 C 43.739 40.443,-13.791 135.460,2.620 233.265 C 20.881 342.104,124.268 415.669,233.265 397.380 C 342.104 379.119,415.669 275.732,397.380 166.735 C 382.562 78.419,312.487 12.185,222.000 0.969 C 216.860 0.332,190.620 -0.184,185.600 0.254 M203.600 72.832 C 231.810 75.860,260.402 97.536,270.654 123.666 L 271.706 126.348 274.353 126.593 C 318.884 130.712,342.575 179.552,318.040 216.655 C 312.588 224.900,309.104 227.010,306.513 223.635 C 305.226 221.959,305.785 220.511,309.769 215.200 C 334.074 182.796,314.635 138.958,273.862 134.225 C 270.530 133.839,268.280 133.372,267.462 132.897 C 266.124 132.121,266.043 131.982,262.670 124.758 C 239.570 75.275,177.319 64.370,137.388 102.813 C 131.836 108.158,130.316 108.757,128.221 106.429 C 123.803 101.517,144.316 84.344,162.800 77.478 C 176.298 72.465,187.887 71.145,203.600 72.832 M123.418 115.782 C 124.972 117.335,124.713 118.950,121.823 125.743 C 117.973 134.790,116.612 140.027,115.389 150.493 C 114.449 158.541,114.238 158.828,108.000 160.567 C 88.126 166.109,76.301 185.432,80.534 205.452 C 83.079 217.490,92.615 228.020,104.895 232.352 L 109.000 233.800 194.374 233.908 L 279.748 234.016 283.644 232.806 C 285.787 232.140,288.948 230.995,290.670 230.261 C 295.199 228.331,295.677 228.261,297.218 229.305 C 304.238 234.062,290.373 241.163,272.700 241.861 L 266.000 242.126 266.010 251.163 C 266.024 264.450,266.001 264.400,272.030 264.400 L 275.906 264.400 276.976 262.214 C 283.254 249.381,302.836 254.079,302.905 268.436 C 302.972 282.473,282.807 286.826,276.830 274.064 L 275.908 272.095 271.249 271.929 C 260.540 271.547,258.812 268.939,258.508 252.700 L 258.307 242.000 246.739 242.000 L 235.170 242.000 235.285 266.118 C 235.423 295.087,234.848 292.401,240.909 292.399 L 245.000 292.397 245.721 290.643 C 251.144 277.455,271.768 281.851,271.794 296.200 C 271.819 310.584,251.250 315.134,245.797 301.951 L 245.032 300.102 240.214 299.916 C 234.703 299.704,233.326 299.231,230.774 296.680 C 227.595 293.501,227.814 295.583,227.683 267.300 L 227.566 242.000 215.610 242.000 L 203.653 242.000 203.527 259.300 C 203.433 272.152,203.272 276.823,202.903 277.468 C 201.575 279.787,197.345 279.338,196.454 276.783 C 196.143 275.892,196.000 270.199,196.000 258.740 L 196.000 242.000 184.000 242.000 L 172.000 242.000 171.994 247.100 C 171.987 252.933,171.672 253.911,169.537 254.724 C 165.859 256.123,164.400 253.855,164.400 246.740 L 164.400 242.000 152.800 242.000 L 141.200 242.000 141.193 248.900 C 141.175 268.591,139.109 272.000,127.192 272.000 L 123.623 272.000 122.603 274.157 C 116.563 286.924,96.736 282.531,96.624 268.400 C 96.508 253.754,116.121 249.477,122.762 262.700 L 123.616 264.400 127.364 264.400 C 133.442 264.400,133.541 264.165,133.579 249.700 L 133.600 242.000 125.700 241.997 C 105.397 241.988,95.428 238.841,85.850 229.418 C 76.256 219.980,72.611 211.057,72.604 197.000 L 72.600 187.800 74.078 183.531 C 79.221 168.682,88.985 158.920,103.782 153.832 L 107.364 152.600 108.299 146.200 C 111.274 125.833,118.643 111.007,123.418 115.782 M107.783 262.745 C 104.618 264.675,103.383 267.700,104.629 270.465 C 107.263 276.305,115.636 275.067,116.260 268.746 C 116.699 264.309,111.385 260.548,107.783 262.745 M287.001 262.630 C 282.178 265.145,281.869 270.458,286.369 273.490 C 290.662 276.384,296.980 271.277,294.992 266.520 C 293.434 262.790,289.949 261.093,287.001 262.630 M170.706 266.398 C 172.423 267.998,172.623 289.978,170.954 293.600 C 168.929 297.992,164.998 300.000,158.425 300.000 L 154.595 300.000 153.695 301.964 C 147.644 315.153,127.777 310.730,127.808 296.200 C 127.838 281.810,147.752 277.374,153.658 290.442 L 154.543 292.400 158.298 292.400 C 164.442 292.400,164.102 293.157,164.380 278.865 L 164.600 267.530 165.722 266.565 C 167.148 265.339,169.485 265.261,170.706 266.398 M202.092 290.100 C 203.069 290.858,203.595 293.407,203.599 297.400 L 203.603 301.000 205.415 301.745 C 218.562 307.152,214.122 327.746,199.800 327.790 C 185.386 327.834,180.868 307.224,194.099 301.781 L 195.997 301.000 195.999 296.674 C 196.000 292.357,196.305 291.080,197.565 290.113 C 198.399 289.473,201.273 289.465,202.092 290.100 M139.001 290.630 C 134.178 293.145,133.869 298.458,138.369 301.490 C 142.662 304.384,148.980 299.277,146.992 294.520 C 145.434 290.790,141.949 289.093,139.001 290.630 M255.783 290.745 C 252.618 292.675,251.383 295.700,252.629 298.465 C 255.263 304.305,263.636 303.067,264.260 296.746 C 264.699 292.309,259.385 288.548,255.783 290.745 M197.008 308.915 C 194.138 310.540,192.843 314.176,194.200 316.799 C 196.584 321.411,202.876 321.355,205.251 316.701 C 207.809 311.687,201.925 306.130,197.008 308.915 " stroke="none" fill="#fbfbfb" fill-rule="evenodd"></path><path id="path2" d="M188.316 72.297 C 189.699 72.375,191.859 72.374,193.116 72.295 C 194.372 72.216,193.240 72.152,190.600 72.153 C 187.960 72.153,186.932 72.218,188.316 72.297 M305.800 149.200 C 306.883 150.300,307.860 151.200,307.970 151.200 C 308.080 151.200,307.283 150.300,306.200 149.200 C 305.117 148.100,304.140 147.200,304.030 147.200 C 303.920 147.200,304.717 148.100,305.800 149.200 M84.985 165.300 L 83.000 167.400 85.100 165.415 C 86.255 164.323,87.200 163.378,87.200 163.315 C 87.200 163.017,86.829 163.349,84.985 165.300 M327.693 181.600 C 327.693 182.370,327.775 182.685,327.876 182.300 C 327.976 181.915,327.976 181.285,327.876 180.900 C 327.775 180.515,327.693 180.830,327.693 181.600 M327.701 187.000 C 327.705 187.880,327.787 188.193,327.883 187.695 C 327.979 187.198,327.975 186.478,327.875 186.095 C 327.775 185.713,327.696 186.120,327.701 187.000 M79.746 197.000 C 79.747 199.200,79.814 200.049,79.895 198.887 C 79.976 197.724,79.976 195.924,79.893 194.887 C 79.811 193.849,79.745 194.800,79.746 197.000 M85.200 229.000 C 85.946 229.770,86.647 230.400,86.757 230.400 C 86.867 230.400,86.346 229.770,85.600 229.000 C 84.854 228.230,84.153 227.600,84.043 227.600 C 83.933 227.600,84.454 228.230,85.200 229.000 M162.532 234.300 C 184.054 234.357,219.154 234.357,240.532 234.300 C 261.909 234.243,244.300 234.196,201.400 234.196 C 158.500 234.196,141.009 234.243,162.532 234.300 M116.705 241.883 C 117.202 241.979,117.922 241.975,118.305 241.875 C 118.687 241.775,118.280 241.696,117.400 241.701 C 116.520 241.705,116.207 241.787,116.705 241.883 M273.105 241.883 C 273.602 241.979,274.322 241.975,274.705 241.875 C 275.087 241.775,274.680 241.696,273.800 241.701 C 272.920 241.705,272.607 241.787,273.105 241.883 M140.968 249.800 C 140.968 254.200,141.026 256.055,141.098 253.921 C 141.170 251.788,141.170 248.188,141.099 245.921 C 141.027 243.655,140.968 245.400,140.968 249.800 M234.987 263.600 C 234.987 275.590,235.038 280.495,235.100 274.500 C 235.162 268.505,235.162 258.695,235.100 252.700 C 235.038 246.705,234.987 251.610,234.987 263.600 M164.509 250.400 C 164.509 251.390,164.587 251.795,164.682 251.300 C 164.778 250.805,164.778 249.995,164.682 249.500 C 164.587 249.005,164.509 249.410,164.509 250.400 M258.528 258.000 C 258.528 259.430,258.601 260.015,258.689 259.300 C 258.778 258.585,258.778 257.415,258.689 256.700 C 258.601 255.985,258.528 256.570,258.528 258.000 M133.293 259.600 C 133.293 260.370,133.375 260.685,133.476 260.300 C 133.576 259.915,133.576 259.285,133.476 258.900 C 133.375 258.515,133.293 258.830,133.293 259.600 M203.353 269.800 C 203.353 272.440,203.418 273.468,203.497 272.084 C 203.575 270.701,203.574 268.541,203.495 267.284 C 203.416 266.028,203.352 267.160,203.353 269.800 M137.375 268.900 L 136.200 270.200 137.500 269.025 C 138.712 267.930,138.984 267.600,138.675 267.600 C 138.606 267.600,138.021 268.185,137.375 268.900 M164.534 272.000 C 164.534 273.650,164.605 274.325,164.691 273.500 C 164.778 272.675,164.778 271.325,164.691 270.500 C 164.605 269.675,164.534 270.350,164.534 272.000 M196.101 274.600 C 196.105 275.480,196.187 275.793,196.283 275.295 C 196.379 274.798,196.375 274.078,196.275 273.695 C 196.175 273.313,196.096 273.720,196.101 274.600 M171.693 288.400 C 171.693 289.170,171.775 289.485,171.876 289.100 C 171.976 288.715,171.976 288.085,171.876 287.700 C 171.775 287.315,171.693 287.630,171.693 288.400 M227.709 289.200 C 227.709 290.190,227.787 290.595,227.882 290.100 C 227.978 289.605,227.978 288.795,227.882 288.300 C 227.787 287.805,227.709 288.210,227.709 289.200 M203.293 294.400 C 203.293 295.170,203.375 295.485,203.476 295.100 C 203.576 294.715,203.576 294.085,203.476 293.700 C 203.375 293.315,203.293 293.630,203.293 294.400 M190.175 304.500 L 189.000 305.800 190.300 304.625 C 191.512 303.530,191.784 303.200,191.475 303.200 C 191.406 303.200,190.821 303.785,190.175 304.500 M247.200 304.525 C 247.200 304.594,247.785 305.179,248.500 305.825 L 249.800 307.000 248.625 305.700 C 247.530 304.488,247.200 304.216,247.200 304.525 " stroke="none" fill="#a0a0a0" fill-rule="evenodd"></path><path id="path3" d="M191.500 79.482 C 191.995 79.578,192.805 79.578,193.300 79.482 C 193.795 79.387,193.390 79.309,192.400 79.309 C 191.410 79.309,191.005 79.387,191.500 79.482 M310.800 143.800 C 311.995 145.010,313.063 146.000,313.173 146.000 C 313.283 146.000,312.395 145.010,311.200 143.800 C 310.005 142.590,308.937 141.600,308.827 141.600 C 308.717 141.600,309.605 142.590,310.800 143.800 M118.300 234.289 C 119.015 234.378,120.185 234.378,120.900 234.289 C 121.615 234.201,121.030 234.128,119.600 234.128 C 118.170 234.128,117.585 234.201,118.300 234.289 M120.905 241.887 C 121.514 241.979,122.414 241.977,122.905 241.882 C 123.397 241.787,122.900 241.711,121.800 241.714 C 120.700 241.717,120.297 241.795,120.905 241.887 M100.575 258.900 L 99.400 260.200 100.700 259.025 C 101.912 257.930,102.184 257.600,101.875 257.600 C 101.806 257.600,101.221 258.185,100.575 258.900 M196.109 270.400 C 196.109 271.390,196.187 271.795,196.282 271.300 C 196.378 270.805,196.378 269.995,196.282 269.500 C 196.187 269.005,196.109 269.410,196.109 270.400 M171.701 272.200 C 171.705 273.080,171.787 273.393,171.883 272.895 C 171.979 272.398,171.975 271.678,171.875 271.295 C 171.775 270.913,171.696 271.320,171.701 272.200 M278.400 276.525 C 278.400 276.594,278.985 277.179,279.700 277.825 L 281.000 279.000 279.825 277.700 C 278.730 276.488,278.400 276.216,278.400 276.525 M171.709 285.200 C 171.709 286.190,171.787 286.595,171.882 286.100 C 171.978 285.605,171.978 284.795,171.882 284.300 C 171.787 283.805,171.709 284.210,171.709 285.200 M164.509 285.600 C 164.509 286.590,164.587 286.995,164.682 286.500 C 164.778 286.005,164.778 285.195,164.682 284.700 C 164.587 284.205,164.509 284.610,164.509 285.600 M227.693 286.000 C 227.693 286.770,227.775 287.085,227.876 286.700 C 227.976 286.315,227.976 285.685,227.876 285.300 C 227.775 284.915,227.693 285.230,227.693 286.000 " stroke="none" fill="#7c7c7c" fill-rule="evenodd"></path><path id="path4" d="M327.701 184.200 C 327.705 185.080,327.787 185.393,327.883 184.895 C 327.979 184.398,327.975 183.678,327.875 183.295 C 327.775 182.913,327.696 183.320,327.701 184.200 M164.542 245.400 C 164.541 247.380,164.608 248.240,164.692 247.312 C 164.776 246.384,164.777 244.764,164.695 243.712 C 164.612 242.660,164.543 243.420,164.542 245.400 M203.377 253.600 C 203.377 260.090,203.432 262.745,203.499 259.500 C 203.566 256.255,203.566 250.945,203.499 247.700 C 203.432 244.455,203.377 247.110,203.377 253.600 M258.565 248.800 C 258.565 252.650,258.625 254.225,258.698 252.300 C 258.771 250.375,258.771 247.225,258.698 245.300 C 258.625 243.375,258.565 244.950,258.565 248.800 M124.691 264.689 C 125.401 264.777,126.661 264.779,127.491 264.692 C 128.321 264.605,127.740 264.533,126.200 264.531 C 124.660 264.529,123.981 264.600,124.691 264.689 M271.891 264.689 C 272.601 264.777,273.861 264.779,274.691 264.692 C 275.521 264.605,274.940 264.533,273.400 264.531 C 271.860 264.529,271.181 264.600,271.891 264.689 M164.553 279.400 C 164.553 282.040,164.618 283.068,164.697 281.684 C 164.775 280.301,164.774 278.141,164.695 276.884 C 164.616 275.628,164.552 276.760,164.553 279.400 M155.891 292.689 C 156.601 292.777,157.861 292.779,158.691 292.692 C 159.521 292.605,158.940 292.533,157.400 292.531 C 155.860 292.529,155.181 292.600,155.891 292.689 M241.100 292.689 C 241.815 292.778,242.985 292.778,243.700 292.689 C 244.415 292.601,243.830 292.528,242.400 292.528 C 240.970 292.528,240.385 292.601,241.100 292.689 M203.331 298.200 C 203.333 299.740,203.405 300.321,203.492 299.491 C 203.579 298.661,203.577 297.401,203.489 296.691 C 203.400 295.981,203.329 296.660,203.331 298.200 " stroke="none" fill="#848484" fill-rule="evenodd"></path></g></svg>