<svg id="svg" version="1.1" xmlns="http://www.w3.org/2000/svg" xmlns:xlink="http://www.w3.org/1999/xlink" width="400" height="400" viewBox="0, 0, 400,400"><g id="svgg"><path id="path0" d="M201.200 72.417 C 178.915 72.780,170.220 74.615,157.200 81.704 C 130.265 96.369,114.927 122.917,114.783 155.122 C 114.755 161.283,115.000 160.732,101.092 185.895 L 88.061 209.470 88.397 212.035 C 89.479 220.303,94.671 225.473,102.827 226.403 C 106.692 226.844,109.832 227.699,112.439 229.020 L 114.313 229.969 114.550 237.085 C 115.146 254.969,115.663 257.102,120.692 262.436 C 126.469 268.566,127.993 268.902,150.893 269.103 L 169.586 269.268 170.864 270.881 C 173.147 273.764,173.205 274.391,173.636 300.797 L 174.030 324.993 175.304 326.307 L 176.577 327.621 234.388 327.510 C 279.417 327.424,292.448 327.290,293.319 326.903 C 295.659 325.863,295.657 325.884,295.523 299.459 L 295.400 275.400 294.298 273.156 C 291.189 266.826,287.071 264.768,276.600 264.316 C 263.867 263.767,264.263 264.074,264.066 254.554 L 263.932 248.071 266.666 247.819 C 273.838 247.159,274.144 246.773,274.335 238.161 L 274.471 232.059 275.935 231.469 C 279.118 230.187,279.972 227.542,279.993 218.900 L 280.000 216.000 285.200 216.000 L 290.400 216.000 290.400 210.800 L 290.400 205.600 258.600 205.600 L 226.800 205.600 226.800 210.800 L 226.800 216.000 232.164 216.000 L 237.528 216.000 237.664 222.172 C 237.815 229.032,238.075 229.794,240.748 231.228 C 241.476 231.618,242.164 232.030,242.277 232.144 C 242.391 232.257,242.630 234.851,242.808 237.908 C 243.310 246.499,243.757 247.142,249.621 247.736 L 253.600 248.139 253.612 253.170 C 253.653 269.910,257.162 273.555,274.006 274.358 C 286.410 274.949,285.399 272.834,285.400 298.200 L 285.400 317.400 234.762 317.502 L 184.125 317.603 183.864 311.902 C 183.720 308.766,183.594 300.260,183.584 293.000 C 183.549 268.870,182.143 264.454,173.108 260.098 L 170.417 258.800 160.708 258.799 C 155.369 258.799,146.544 258.680,141.097 258.535 L 131.195 258.272 128.824 256.126 C 125.763 253.356,125.696 253.020,125.223 238.125 C 124.804 224.950,124.942 225.510,121.457 222.878 C 116.787 219.352,111.617 217.219,105.807 216.421 C 102.195 215.925,100.061 214.987,99.238 213.536 C 98.538 212.300,99.257 210.842,112.672 186.286 C 117.866 176.779,122.810 167.570,123.658 165.821 L 125.200 162.642 125.212 157.021 C 125.237 144.923,126.112 138.435,128.820 130.278 C 135.733 109.452,152.236 92.931,173.000 86.050 C 181.293 83.302,186.045 82.779,205.100 82.521 L 221.200 82.303 221.200 77.151 L 221.200 72.000 219.300 72.077 C 218.255 72.119,210.110 72.272,201.200 72.417 M250.829 83.431 C 200.533 91.568,189.096 159.281,234.018 182.966 L 237.600 184.854 237.600 189.627 L 237.600 194.400 242.861 194.400 L 248.121 194.400 247.896 187.435 C 247.600 178.276,247.606 178.288,242.263 175.568 C 224.690 166.620,216.255 153.721,216.259 135.800 C 216.268 95.372,266.693 77.959,292.115 109.605 C 309.577 131.343,301.957 162.020,275.822 175.193 C 269.675 178.292,269.831 177.992,269.662 187.029 L 269.524 194.400 274.762 194.400 L 280.000 194.400 280.001 189.500 L 280.003 184.600 283.901 182.490 C 321.139 162.339,320.617 108.133,283.000 88.935 C 273.089 83.877,260.930 81.797,250.829 83.431 M253.000 110.189 C 242.071 112.583,233.856 122.032,232.210 134.100 L 231.951 136.000 237.112 136.000 L 242.273 136.000 242.771 133.700 C 243.530 130.198,244.948 127.419,247.174 125.065 C 249.972 122.106,252.111 121.001,257.300 119.832 L 258.400 119.585 258.400 114.592 L 258.400 109.600 256.900 109.632 C 256.075 109.649,254.320 109.900,253.000 110.189 M269.518 218.700 L 269.400 221.400 258.700 221.507 L 248.000 221.613 248.000 218.807 L 248.000 216.000 258.818 216.000 L 269.637 216.000 269.518 218.700 M264.000 234.800 L 264.000 237.600 258.600 237.600 L 253.200 237.600 253.200 234.800 L 253.200 232.000 258.600 232.000 L 264.000 232.000 264.000 234.800 " stroke="none" fill="#050505" fill-rule="evenodd"></path><path id="path1" d="M185.600 0.254 C 168.121 1.778,153.012 4.766,138.000 9.667 C 43.739 40.443,-13.791 135.460,2.620 233.265 C 20.881 342.104,124.268 415.669,233.265 397.380 C 342.104 379.119,415.669 275.732,397.380 166.735 C 382.562 78.419,312.487 12.185,222.000 0.969 C 216.860 0.332,190.620 -0.184,185.600 0.254 M221.600 77.200 L 221.600 82.400 214.100 82.413 C 180.636 82.471,168.682 85.241,153.584 96.436 C 135.341 109.963,126.413 128.070,125.638 153.117 L 125.325 163.233 123.198 167.317 C 122.028 169.563,117.477 177.970,113.085 186.000 C 102.565 205.231,99.200 211.695,99.200 212.671 C 99.200 214.295,101.838 215.715,105.722 216.183 C 111.332 216.859,117.020 219.174,121.353 222.544 C 125.318 225.627,125.110 224.774,125.566 239.800 C 125.981 253.460,126.059 253.787,129.529 256.509 L 131.800 258.291 151.278 258.480 L 170.756 258.669 173.465 260.002 C 177.202 261.842,179.669 264.433,181.686 268.637 L 183.336 272.075 183.641 280.738 C 183.808 285.502,183.958 295.774,183.973 303.565 L 184.000 317.730 201.700 317.466 C 211.435 317.320,234.205 317.201,252.300 317.200 L 285.200 317.200 285.198 298.300 C 285.195 273.148,286.085 275.218,275.045 274.687 C 257.465 273.840,253.980 270.744,253.673 255.700 L 253.515 248.000 250.458 247.977 C 244.134 247.931,243.006 246.584,242.600 238.600 C 242.284 232.395,242.275 232.366,240.464 231.259 C 237.841 229.656,237.600 228.880,237.600 222.038 L 237.600 216.000 232.000 216.000 L 226.400 216.000 226.400 210.800 L 226.400 205.600 258.400 205.600 L 290.400 205.600 290.400 210.800 L 290.400 216.000 285.200 216.000 L 280.000 216.000 279.998 221.100 C 279.995 228.568,279.384 230.220,276.100 231.638 L 274.400 232.372 274.400 238.401 L 274.400 244.431 272.853 246.090 L 271.305 247.749 267.605 247.925 L 263.905 248.102 264.075 254.151 C 264.342 263.692,264.123 263.511,275.998 264.009 C 286.947 264.469,290.824 266.268,294.189 272.450 C 296.146 276.047,296.938 322.119,295.099 325.481 C 293.801 327.856,296.485 327.750,234.122 327.900 L 176.844 328.038 175.222 326.572 L 173.600 325.107 173.581 313.053 C 173.533 282.664,172.945 273.726,170.826 271.157 L 169.635 269.713 151.318 269.490 C 128.379 269.210,126.905 268.896,120.967 263.009 C 115.629 257.717,114.894 255.148,114.526 240.500 L 114.272 230.401 112.636 229.455 C 110.283 228.095,107.559 227.290,103.000 226.608 C 95.019 225.415,90.438 221.594,88.621 214.616 C 87.385 209.871,86.755 211.347,101.156 185.245 L 114.312 161.400 114.580 154.200 C 115.962 117.077,134.122 89.957,166.000 77.413 C 177.173 73.017,183.797 72.158,207.300 72.060 L 221.600 72.000 221.600 77.200 M267.000 83.458 C 317.201 91.208,328.441 159.096,283.484 183.012 L 280.000 184.865 280.000 189.633 L 280.000 194.400 274.776 194.400 L 269.552 194.400 269.676 186.641 C 269.824 177.384,269.460 178.082,275.800 174.905 C 302.937 161.308,309.670 128.750,289.785 107.273 C 264.826 80.315,219.874 95.488,216.435 132.029 C 214.723 150.224,223.784 165.731,241.434 174.815 C 247.941 178.164,247.994 178.270,247.998 187.900 L 248.000 194.400 242.813 194.400 L 237.625 194.400 237.513 189.708 L 237.400 185.015 233.800 183.069 C 198.366 163.914,195.677 114.199,228.874 91.993 C 240.915 83.940,252.835 81.271,267.000 83.458 M258.400 114.748 L 258.400 119.896 256.063 120.356 C 249.654 121.617,244.922 126.225,243.243 132.840 L 242.492 135.800 237.189 135.912 L 231.887 136.024 232.104 133.633 C 233.223 121.283,244.692 109.813,256.100 109.636 L 258.400 109.600 258.400 114.748 M248.000 218.762 L 248.000 221.525 258.500 221.309 C 264.275 221.191,269.021 221.073,269.047 221.047 C 269.073 221.021,269.217 219.875,269.367 218.500 L 269.640 216.000 258.820 216.000 L 248.000 216.000 248.000 218.762 M253.600 234.800 L 253.600 237.600 258.800 237.600 L 264.000 237.600 264.000 234.800 L 264.000 232.000 258.800 232.000 L 253.600 232.000 253.600 234.800 " stroke="none" fill="#fbfbfb" fill-rule="evenodd"></path><path id="path2" d="M194.915 72.296 C 196.188 72.376,198.168 72.375,199.315 72.294 C 200.462 72.214,199.420 72.149,197.000 72.150 C 194.580 72.151,193.642 72.216,194.915 72.296 M197.700 82.694 C 198.745 82.776,200.455 82.776,201.500 82.694 C 202.545 82.612,201.690 82.544,199.600 82.544 C 197.510 82.544,196.655 82.612,197.700 82.694 M296.200 98.400 C 297.059 99.280,297.852 100.000,297.962 100.000 C 298.072 100.000,297.459 99.280,296.600 98.400 C 295.741 97.520,294.948 96.800,294.838 96.800 C 294.728 96.800,295.341 97.520,296.200 98.400 M145.578 103.100 L 144.200 104.600 145.700 103.222 C 146.525 102.463,147.200 101.788,147.200 101.722 C 147.200 101.416,146.862 101.704,145.578 103.100 M228.378 105.900 L 227.000 107.400 228.500 106.022 C 229.896 104.738,230.184 104.400,229.878 104.400 C 229.812 104.400,229.137 105.075,228.378 105.900 M239.775 117.300 L 238.600 118.600 239.900 117.425 C 240.615 116.779,241.200 116.194,241.200 116.125 C 241.200 115.816,240.870 116.088,239.775 117.300 M216.093 133.600 C 216.093 134.370,216.175 134.685,216.276 134.300 C 216.376 133.915,216.376 133.285,216.276 132.900 C 216.175 132.515,216.093 132.830,216.093 133.600 M311.744 136.000 C 311.744 138.090,311.812 138.945,311.894 137.900 C 311.976 136.855,311.976 135.145,311.894 134.100 C 311.812 133.055,311.744 133.910,311.744 136.000 M216.093 138.400 C 216.093 139.170,216.175 139.485,216.276 139.100 C 216.376 138.715,216.376 138.085,216.276 137.700 C 216.175 137.315,216.093 137.630,216.093 138.400 M114.520 154.800 C 114.520 156.010,114.595 156.505,114.687 155.900 C 114.778 155.295,114.778 154.305,114.687 153.700 C 114.595 153.095,114.520 153.590,114.520 154.800 M125.334 158.000 C 125.334 159.650,125.405 160.325,125.491 159.500 C 125.578 158.675,125.578 157.325,125.491 156.500 C 125.405 155.675,125.334 156.350,125.334 158.000 M269.293 219.200 C 269.293 219.970,269.375 220.285,269.476 219.900 C 269.576 219.515,269.576 218.885,269.476 218.500 C 269.375 218.115,269.293 218.430,269.293 219.200 M92.800 222.200 C 93.546 222.970,94.247 223.600,94.357 223.600 C 94.467 223.600,93.946 222.970,93.200 222.200 C 92.454 221.430,91.753 220.800,91.643 220.800 C 91.533 220.800,92.054 221.430,92.800 222.200 M255.900 221.497 C 257.495 221.573,260.105 221.573,261.700 221.497 C 263.295 221.421,261.990 221.359,258.800 221.359 C 255.610 221.359,254.305 221.421,255.900 221.497 M125.334 236.400 C 125.334 238.050,125.405 238.725,125.491 237.900 C 125.578 237.075,125.578 235.725,125.491 234.900 C 125.405 234.075,125.334 234.750,125.334 236.400 M242.509 237.600 C 242.509 238.590,242.587 238.995,242.682 238.500 C 242.778 238.005,242.778 237.195,242.682 236.700 C 242.587 236.205,242.509 236.610,242.509 237.600 M114.524 242.200 C 114.526 243.520,114.601 244.012,114.690 243.293 C 114.779 242.574,114.777 241.494,114.686 240.893 C 114.595 240.292,114.522 240.880,114.524 242.200 M154.882 258.696 C 156.358 258.773,158.878 258.773,160.482 258.697 C 162.087 258.621,160.880 258.558,157.800 258.558 C 154.720 258.557,153.407 258.619,154.882 258.696 M176.800 262.125 C 176.800 262.194,177.385 262.779,178.100 263.425 L 179.400 264.600 178.225 263.300 C 177.130 262.088,176.800 261.816,176.800 262.125 M277.907 264.290 C 278.626 264.379,279.706 264.377,280.307 264.286 C 280.908 264.195,280.320 264.122,279.000 264.124 C 277.680 264.126,277.188 264.201,277.907 264.290 M256.800 268.925 C 256.800 268.994,257.385 269.579,258.100 270.225 L 259.400 271.400 258.225 270.100 C 257.130 268.888,256.800 268.616,256.800 268.925 M142.700 269.496 C 144.075 269.574,146.325 269.574,147.700 269.496 C 149.075 269.418,147.950 269.354,145.200 269.354 C 142.450 269.354,141.325 269.418,142.700 269.496 M275.500 274.682 C 275.995 274.778,276.805 274.778,277.300 274.682 C 277.795 274.587,277.390 274.509,276.400 274.509 C 275.410 274.509,275.005 274.587,275.500 274.682 M172.893 278.000 C 172.893 278.770,172.975 279.085,173.076 278.700 C 173.176 278.315,173.176 277.685,173.076 277.300 C 172.975 276.915,172.893 277.230,172.893 278.000 M295.766 291.600 C 295.766 295.670,295.825 297.335,295.898 295.300 C 295.971 293.265,295.971 289.935,295.898 287.900 C 295.825 285.865,295.766 287.530,295.766 291.600 M183.765 293.600 C 183.765 297.450,183.825 299.025,183.898 297.100 C 183.971 295.175,183.971 292.025,183.898 290.100 C 183.825 288.175,183.765 289.750,183.765 293.600 M173.354 292.000 C 173.354 294.750,173.418 295.875,173.496 294.500 C 173.574 293.125,173.574 290.875,173.496 289.500 C 173.418 288.125,173.354 289.250,173.354 292.000 M285.373 296.800 C 285.373 302.190,285.430 304.395,285.499 301.700 C 285.568 299.005,285.568 294.595,285.499 291.900 C 285.430 289.205,285.373 291.410,285.373 296.800 M221.100 317.500 C 228.635 317.561,240.965 317.561,248.500 317.500 C 256.035 317.439,249.870 317.389,234.800 317.389 C 219.730 317.389,213.565 317.439,221.100 317.500 M295.728 320.000 C 295.728 321.430,295.801 322.015,295.889 321.300 C 295.978 320.585,295.978 319.415,295.889 318.700 C 295.801 317.985,295.728 318.570,295.728 320.000 M173.674 322.822 C 173.604 324.917,173.685 325.122,175.100 326.422 L 176.600 327.800 175.322 326.400 C 174.277 325.254,174.018 324.601,173.896 322.800 L 173.748 320.600 173.674 322.822 M189.100 327.900 C 195.975 327.961,207.225 327.961,214.100 327.900 C 220.975 327.838,215.350 327.788,201.600 327.788 C 187.850 327.788,182.225 327.838,189.100 327.900 M281.891 327.889 C 282.601 327.977,283.861 327.979,284.691 327.892 C 285.521 327.805,284.940 327.733,283.400 327.731 C 281.860 327.729,281.181 327.800,281.891 327.889 " stroke="none" fill="#a0a0a0" fill-rule="evenodd"></path><path id="path3" d="M202.105 72.287 C 202.714 72.379,203.614 72.377,204.105 72.282 C 204.597 72.187,204.100 72.111,203.000 72.114 C 201.900 72.117,201.497 72.195,202.105 72.287 M221.357 77.200 C 221.357 80.170,221.420 81.385,221.497 79.900 C 221.574 78.415,221.574 75.985,221.497 74.500 C 221.420 73.015,221.357 74.230,221.357 77.200 M257.505 93.483 C 258.002 93.579,258.722 93.575,259.105 93.475 C 259.487 93.375,259.080 93.296,258.200 93.301 C 257.320 93.305,257.007 93.387,257.505 93.483 M287.600 104.925 C 287.600 104.994,288.185 105.579,288.900 106.225 L 290.200 107.400 289.025 106.100 C 287.930 104.888,287.600 104.616,287.600 104.925 M125.309 153.600 C 125.309 154.590,125.387 154.995,125.482 154.500 C 125.578 154.005,125.578 153.195,125.482 152.700 C 125.387 152.205,125.309 152.610,125.309 153.600 M226.557 210.800 C 226.557 213.770,226.620 214.985,226.697 213.500 C 226.774 212.015,226.774 209.585,226.697 208.100 C 226.620 206.615,226.557 207.830,226.557 210.800 M265.305 221.487 C 265.914 221.579,266.814 221.577,267.305 221.482 C 267.797 221.387,267.300 221.311,266.200 221.314 C 265.100 221.317,264.697 221.395,265.305 221.487 M253.331 234.600 C 253.333 236.140,253.405 236.721,253.492 235.891 C 253.579 235.061,253.577 233.801,253.489 233.091 C 253.400 232.381,253.329 233.060,253.331 234.600 M149.705 258.687 C 150.314 258.779,151.214 258.777,151.705 258.682 C 152.197 258.587,151.700 258.511,150.600 258.514 C 149.500 258.517,149.097 258.595,149.705 258.687 M154.700 269.499 C 157.395 269.568,161.805 269.568,164.500 269.499 C 167.195 269.430,164.990 269.373,159.600 269.373 C 154.210 269.373,152.005 269.430,154.700 269.499 M173.293 286.000 C 173.293 286.770,173.375 287.085,173.476 286.700 C 173.576 286.315,173.576 285.685,173.476 285.300 C 173.375 284.915,173.293 285.230,173.293 286.000 M285.293 286.000 C 285.293 286.770,285.375 287.085,285.476 286.700 C 285.576 286.315,285.576 285.685,285.476 285.300 C 285.375 284.915,285.293 285.230,285.293 286.000 M295.753 303.400 C 295.753 306.040,295.818 307.068,295.897 305.684 C 295.975 304.301,295.974 302.141,295.895 300.884 C 295.816 299.628,295.752 300.760,295.753 303.400 M183.714 302.200 C 183.717 303.300,183.795 303.703,183.887 303.095 C 183.979 302.486,183.977 301.586,183.882 301.095 C 183.787 300.603,183.711 301.100,183.714 302.200 M285.337 309.400 C 285.339 311.160,285.409 311.830,285.493 310.889 C 285.578 309.949,285.577 308.509,285.491 307.689 C 285.405 306.870,285.336 307.640,285.337 309.400 M295.720 315.600 C 295.720 316.810,295.795 317.305,295.887 316.700 C 295.978 316.095,295.978 315.105,295.887 314.500 C 295.795 313.895,295.720 314.390,295.720 315.600 M266.300 317.499 C 268.775 317.569,272.825 317.569,275.300 317.499 C 277.775 317.428,275.750 317.371,270.800 317.371 C 265.850 317.371,263.825 317.428,266.300 317.499 M173.709 319.200 C 173.709 320.190,173.787 320.595,173.882 320.100 C 173.978 319.605,173.978 318.795,173.882 318.300 C 173.787 317.805,173.709 318.210,173.709 319.200 M233.074 327.899 C 236.855 327.965,243.155 327.965,247.074 327.899 C 250.993 327.834,247.900 327.780,240.200 327.780 C 232.500 327.780,229.293 327.834,233.074 327.899 M275.900 327.893 C 276.835 327.977,278.365 327.977,279.300 327.893 C 280.235 327.809,279.470 327.740,277.600 327.740 C 275.730 327.740,274.965 327.809,275.900 327.893 " stroke="none" fill="#7c7c7c" fill-rule="evenodd"></path><path id="path4" d="M207.919 72.298 C 209.744 72.372,212.624 72.372,214.319 72.297 C 216.014 72.222,214.520 72.161,211.000 72.162 C 207.480 72.162,206.094 72.224,207.919 72.298 M138.000 95.800 C 137.028 96.790,136.323 97.600,136.433 97.600 C 136.543 97.600,137.428 96.790,138.400 95.800 C 139.372 94.810,140.077 94.000,139.967 94.000 C 139.857 94.000,138.972 94.810,138.000 95.800 M301.320 136.000 C 301.320 137.210,301.395 137.705,301.487 137.100 C 301.578 136.495,301.578 135.505,301.487 134.900 C 301.395 134.295,301.320 134.790,301.320 136.000 M125.293 150.800 C 125.293 151.570,125.375 151.885,125.476 151.500 C 125.576 151.115,125.576 150.485,125.476 150.100 C 125.375 149.715,125.293 150.030,125.293 150.800 M227.200 164.925 C 227.200 164.994,227.785 165.579,228.500 166.225 L 229.800 167.400 228.625 166.100 C 227.530 164.888,227.200 164.616,227.200 164.925 M145.507 258.690 C 146.226 258.779,147.306 258.777,147.907 258.686 C 148.508 258.595,147.920 258.522,146.600 258.524 C 145.280 258.526,144.788 258.601,145.507 258.690 M120.800 263.000 C 121.546 263.770,122.247 264.400,122.357 264.400 C 122.467 264.400,121.946 263.770,121.200 263.000 C 120.454 262.230,119.753 261.600,119.643 261.600 C 119.533 261.600,120.054 262.230,120.800 263.000 M285.293 283.600 C 285.293 284.370,285.375 284.685,285.476 284.300 C 285.576 283.915,285.576 283.285,285.476 282.900 C 285.375 282.515,285.293 282.830,285.293 283.600 M183.737 307.000 C 183.739 308.760,183.809 309.430,183.893 308.489 C 183.978 307.549,183.977 306.109,183.891 305.289 C 183.805 304.470,183.736 305.240,183.737 307.000 M295.734 310.800 C 295.734 312.450,295.805 313.125,295.891 312.300 C 295.978 311.475,295.978 310.125,295.891 309.300 C 295.805 308.475,295.734 309.150,295.734 310.800 M173.734 314.800 C 173.734 316.450,173.805 317.125,173.891 316.300 C 173.978 315.475,173.978 314.125,173.891 313.300 C 173.805 312.475,173.734 313.150,173.734 314.800 M285.274 314.682 L 285.200 317.165 282.300 317.303 L 279.400 317.441 282.313 317.521 C 285.663 317.612,285.718 317.557,285.497 314.352 L 285.348 312.200 285.274 314.682 M258.876 327.899 C 261.668 327.967,266.348 327.968,269.276 327.899 C 272.204 327.831,269.920 327.775,264.200 327.774 C 258.480 327.774,256.084 327.830,258.876 327.899 " stroke="none" fill="#747474" fill-rule="evenodd"></path></g></svg>