<svg id="svg" version="1.1" xmlns="http://www.w3.org/2000/svg" xmlns:xlink="http://www.w3.org/1999/xlink" width="400" height="400" viewBox="0, 0, 400,400"><g id="svgg"><path id="path0" d="M99.740 72.800 C 87.605 75.322,77.995 84.067,73.450 96.724 L 72.400 99.648 72.403 198.124 C 72.405 264.288,72.542 297.440,72.821 299.160 C 74.507 309.548,81.792 319.093,91.800 324.026 C 99.395 327.770,86.411 327.386,209.506 327.505 L 318.412 327.610 320.063 326.768 C 322.428 325.561,325.417 322.625,326.483 320.461 L 327.400 318.600 327.400 230.600 C 327.400 131.372,327.665 139.312,324.250 136.083 C 320.184 132.238,319.509 132.096,302.360 131.505 L 299.320 131.400 311.469 119.000 C 327.678 102.457,327.834 102.241,327.525 96.667 C 327.284 92.314,326.684 91.448,317.618 82.374 C 308.443 73.190,307.733 72.706,303.091 72.472 C 297.654 72.197,298.590 71.440,272.229 97.430 C 259.453 110.025,246.482 122.866,243.405 125.965 L 237.811 131.600 182.539 131.600 L 127.267 131.600 127.133 106.500 C 126.981 77.915,127.241 80.023,123.390 76.149 C 119.893 72.633,119.829 72.615,110.000 72.530 C 105.270 72.488,100.653 72.610,99.740 72.800 M117.742 81.941 L 119.247 83.481 119.083 169.241 C 118.972 227.122,118.782 255.577,118.499 256.776 C 117.893 259.342,117.606 259.445,110.251 259.721 C 96.685 260.231,91.334 262.177,81.900 270.029 L 80.400 271.278 80.400 186.249 L 80.400 101.221 81.632 98.110 C 86.616 85.526,94.543 80.558,109.819 80.447 L 116.238 80.400 117.742 81.941 M304.120 81.058 C 307.398 82.744,319.600 95.456,319.600 97.186 C 319.600 98.667,317.754 101.351,314.642 104.394 L 311.989 106.987 302.500 97.498 L 293.011 88.009 296.006 84.961 C 300.549 80.336,301.668 79.797,304.120 81.058 M296.698 103.326 C 301.594 108.236,305.600 112.485,305.600 112.769 C 305.600 113.316,300.077 119.200,299.563 119.200 C 299.162 119.200,280.800 100.847,280.800 100.446 C 280.800 99.913,286.685 94.400,287.255 94.400 C 287.552 94.400,291.801 98.417,296.698 103.326 M284.401 115.801 L 293.796 125.202 270.400 148.600 L 247.004 171.998 237.501 162.501 L 227.998 153.004 251.298 129.702 C 264.113 116.886,274.689 106.400,274.802 106.400 C 274.914 106.400,279.234 110.630,284.401 115.801 M225.963 143.500 C 220.486 149.127,217.155 152.920,216.419 154.370 C 215.106 156.957,213.490 167.612,213.107 176.200 L 213.000 178.600 175.713 178.702 L 138.426 178.804 137.413 180.295 C 136.123 182.194,136.105 184.013,137.365 185.478 L 138.329 186.600 145.765 186.725 L 153.200 186.849 153.215 240.725 C 153.230 295.904,153.409 304.380,154.581 305.553 C 155.563 306.534,158.335 306.388,159.900 305.272 L 161.200 304.346 161.200 273.373 L 161.200 242.400 185.000 242.400 L 208.800 242.400 208.800 259.800 L 208.800 277.200 192.836 277.200 L 176.871 277.200 175.836 278.431 C 174.459 280.067,174.481 281.847,175.900 283.732 L 177.000 285.192 221.600 285.096 C 271.106 284.989,267.119 285.218,269.875 282.334 C 272.219 279.882,272.124 281.343,272.311 244.967 L 272.484 211.334 270.884 210.067 C 268.789 208.407,267.592 208.448,265.601 210.247 L 264.000 211.693 264.000 222.847 L 264.000 234.000 212.573 234.000 L 161.146 234.000 161.426 210.700 C 161.580 197.885,161.769 187.328,161.845 187.241 C 161.922 187.153,176.638 186.935,194.547 186.757 C 235.729 186.346,241.458 185.966,245.923 183.349 C 248.047 182.105,254.278 176.145,274.618 155.908 L 290.235 140.369 303.689 140.484 C 316.655 140.596,317.184 140.631,318.271 141.443 L 319.400 142.286 319.501 229.425 L 319.602 316.564 318.104 318.099 L 316.606 319.633 209.403 319.497 C 110.487 319.372,102.030 319.310,100.000 318.692 C 80.639 312.792,74.080 289.655,87.909 276.042 C 93.836 270.208,97.014 268.953,107.305 268.383 C 118.988 267.735,120.893 267.194,124.115 263.610 C 127.115 260.273,126.925 264.406,127.088 199.100 L 127.235 140.400 178.108 140.400 L 228.981 140.400 225.963 143.500 M232.179 168.757 C 237.455 174.052,239.961 176.831,239.579 176.960 C 235.935 178.189,222.887 178.808,222.141 177.787 C 221.440 176.828,221.458 173.256,222.200 166.400 C 222.521 163.430,222.788 160.769,222.792 160.486 C 222.807 159.514,224.136 160.685,232.179 168.757 M264.000 259.800 L 264.000 277.200 240.400 277.200 L 216.800 277.200 216.800 259.800 L 216.800 242.400 240.400 242.400 L 264.000 242.400 264.000 259.800 " stroke="none" fill="#040404" fill-rule="evenodd"></path><path id="path1" d="M185.600 0.254 C 168.121 1.778,153.012 4.766,138.000 9.667 C 43.739 40.443,-13.791 135.460,2.620 233.265 C 20.881 342.104,124.268 415.669,233.265 397.380 C 342.104 379.119,415.669 275.732,397.380 166.735 C 382.562 78.419,312.487 12.185,222.000 0.969 C 216.860 0.332,190.620 -0.184,185.600 0.254 M119.740 73.132 C 121.813 74.049,125.142 77.176,126.242 79.239 C 127.091 80.830,127.495 92.510,127.562 117.300 L 127.600 131.600 182.685 131.600 L 237.770 131.600 265.585 103.858 C 295.919 73.604,296.479 73.089,299.868 72.386 C 305.852 71.144,307.920 72.271,317.817 82.177 C 327.200 91.568,327.786 92.462,327.786 97.400 C 327.786 102.479,327.638 102.682,312.962 117.712 C 305.848 124.999,300.121 131.054,300.235 131.169 C 300.350 131.283,304.349 131.482,309.122 131.610 C 320.058 131.903,324.584 133.747,326.694 138.772 C 328.562 143.218,328.534 317.239,326.665 320.724 C 325.525 322.849,323.285 325.090,320.779 326.613 L 318.448 328.029 209.924 327.896 C 109.130 327.772,101.220 327.714,98.876 327.080 C 86.936 323.852,77.730 315.338,73.711 303.808 C 72.059 299.067,71.974 293.261,72.090 193.200 L 72.200 99.000 73.555 95.600 C 77.958 84.554,85.555 77.104,95.988 73.601 C 101.451 71.767,116.004 71.480,119.740 73.132 M105.400 80.807 C 94.867 81.421,87.680 86.169,83.084 95.548 L 81.000 99.800 80.725 185.192 C 80.574 232.158,80.508 270.641,80.578 270.711 C 80.648 270.781,81.851 269.829,83.253 268.595 C 90.281 262.404,96.562 260.251,109.598 259.565 C 114.745 259.294,117.156 259.015,117.523 258.648 C 118.653 257.519,118.779 248.410,118.789 166.981 L 118.800 83.362 117.283 81.881 C 115.569 80.208,115.609 80.211,105.400 80.807 M297.042 84.391 L 293.400 87.983 302.694 97.284 L 311.988 106.586 314.440 104.193 C 320.566 98.211,320.612 97.514,315.258 91.683 C 304.037 79.461,302.618 78.893,297.042 84.391 M283.693 97.706 L 280.806 100.613 290.110 109.910 L 299.413 119.207 302.346 116.255 C 304.126 114.462,305.224 113.042,305.139 112.640 C 304.941 111.697,287.952 94.800,287.202 94.800 C 286.860 94.800,285.281 96.108,283.693 97.706 M251.498 129.902 L 228.398 153.004 237.701 162.301 L 247.004 171.598 270.200 148.400 L 293.395 125.202 284.201 116.001 C 279.144 110.940,274.914 106.800,274.802 106.800 C 274.689 106.800,264.203 117.196,251.498 129.902 M127.586 192.500 C 127.569 259.246,127.523 260.220,124.194 263.922 C 121.052 267.417,119.632 267.817,107.644 268.586 C 98.412 269.179,97.100 269.522,92.446 272.557 C 74.392 284.331,78.090 310.801,98.800 318.042 C 102.196 319.230,127.203 319.501,238.453 319.559 L 316.707 319.600 318.126 318.030 L 319.544 316.460 319.326 229.530 C 319.113 144.883,319.087 142.579,318.348 141.806 C 317.337 140.747,313.824 140.472,300.788 140.432 L 290.575 140.400 272.188 158.628 C 248.591 182.019,246.630 183.791,243.210 184.807 C 238.231 186.287,221.077 186.893,172.400 187.309 L 161.800 187.400 161.697 210.700 L 161.594 234.000 212.797 234.000 L 264.000 234.000 264.000 222.675 L 264.000 211.350 265.100 210.324 C 267.594 207.997,268.654 207.909,270.799 209.847 L 272.400 211.293 272.376 244.147 C 272.347 283.890,272.589 282.007,267.200 284.550 L 265.400 285.400 221.280 285.351 L 177.159 285.301 176.173 284.375 C 174.327 282.641,174.074 280.648,175.452 278.688 L 176.638 277.000 192.519 276.895 L 208.400 276.791 208.400 259.595 L 208.400 242.400 185.000 242.400 L 161.600 242.400 161.600 273.159 L 161.600 303.917 160.186 305.159 C 158.613 306.540,155.994 306.869,154.612 305.858 C 153.264 304.873,153.174 301.542,152.937 244.149 L 152.702 187.298 145.851 187.123 C 138.410 186.934,137.595 186.724,136.569 184.740 C 135.770 183.195,136.078 181.395,137.397 179.895 L 138.370 178.791 175.585 178.529 C 209.661 178.290,212.800 178.213,212.800 177.614 C 212.800 172.745,214.368 160.169,215.441 156.428 C 216.069 154.239,218.371 150.875,220.796 148.600 C 221.500 147.940,223.518 145.825,225.281 143.900 L 228.487 140.400 178.043 140.400 L 127.600 140.400 127.586 192.500 M223.038 160.857 C 222.595 162.273,221.550 175.262,221.791 176.360 C 222.230 178.360,222.984 178.526,229.272 178.008 C 237.708 177.313,239.950 176.890,239.454 176.087 C 238.615 174.730,223.178 160.408,223.038 160.857 M217.200 259.600 L 217.200 276.800 240.600 276.800 L 264.000 276.800 264.000 259.600 L 264.000 242.400 240.600 242.400 L 217.200 242.400 217.200 259.600 " stroke="none" fill="#fbfbfb" fill-rule="evenodd"></path><path id="path2" d="M317.400 82.000 C 318.259 82.880,319.052 83.600,319.162 83.600 C 319.272 83.600,318.659 82.880,317.800 82.000 C 316.941 81.120,316.148 80.400,316.038 80.400 C 315.928 80.400,316.541 81.120,317.400 82.000 M284.000 115.800 C 289.166 120.970,293.484 125.200,293.594 125.200 C 293.704 125.200,289.566 120.970,284.400 115.800 C 279.234 110.630,274.916 106.400,274.806 106.400 C 274.696 106.400,278.834 110.630,284.000 115.800 M80.573 124.200 C 80.573 129.700,80.630 132.005,80.699 129.323 C 80.768 126.641,80.768 122.141,80.699 119.323 C 80.630 116.505,80.574 118.700,80.573 124.200 M127.337 124.600 C 127.339 126.360,127.409 127.030,127.493 126.089 C 127.578 125.149,127.577 123.709,127.491 122.889 C 127.405 122.070,127.336 122.840,127.337 124.600 M127.391 175.200 C 127.391 194.230,127.440 202.015,127.500 192.500 C 127.560 182.985,127.560 167.415,127.500 157.900 C 127.440 148.385,127.391 156.170,127.391 175.200 M319.373 166.800 C 319.373 172.190,319.430 174.395,319.499 171.700 C 319.568 169.005,319.568 164.595,319.499 161.900 C 319.430 159.205,319.373 161.410,319.373 166.800 M327.751 166.400 C 327.751 168.930,327.816 169.965,327.896 168.700 C 327.975 167.435,327.975 165.365,327.896 164.100 C 327.816 162.835,327.751 163.870,327.751 166.400 M207.300 178.694 C 208.345 178.776,210.055 178.776,211.100 178.694 C 212.145 178.612,211.290 178.544,209.200 178.544 C 207.110 178.544,206.255 178.612,207.300 178.694 M217.100 186.682 C 217.595 186.778,218.405 186.778,218.900 186.682 C 219.395 186.587,218.990 186.509,218.000 186.509 C 217.010 186.509,216.605 186.587,217.100 186.682 M177.111 187.093 C 178.051 187.178,179.491 187.177,180.311 187.091 C 181.130 187.005,180.360 186.936,178.600 186.937 C 176.840 186.939,176.170 187.009,177.111 187.093 M72.185 210.200 C 72.185 220.540,72.236 224.827,72.300 219.728 C 72.363 214.628,72.363 206.168,72.300 200.928 C 72.237 195.687,72.185 199.860,72.185 210.200 M327.784 216.600 C 327.784 226.500,327.836 230.493,327.900 225.473 C 327.963 220.453,327.963 212.353,327.900 207.473 C 327.836 202.593,327.784 206.700,327.784 216.600 M161.337 231.000 C 161.339 232.760,161.409 233.430,161.493 232.489 C 161.578 231.549,161.577 230.109,161.491 229.289 C 161.405 228.470,161.336 229.240,161.337 231.000 M118.901 239.000 C 118.905 239.880,118.987 240.193,119.083 239.695 C 119.179 239.198,119.175 238.478,119.075 238.095 C 118.975 237.713,118.896 238.120,118.901 239.000 M161.390 273.400 C 161.390 290.340,161.440 297.212,161.500 288.670 C 161.560 280.129,161.560 266.269,161.500 257.870 C 161.440 249.472,161.390 256.460,161.390 273.400 M208.583 259.800 C 208.583 269.260,208.636 273.073,208.700 268.273 C 208.764 263.473,208.763 255.733,208.699 251.073 C 208.636 246.413,208.583 250.340,208.583 259.800 M72.175 260.600 C 72.175 266.540,72.231 269.026,72.299 266.124 C 72.367 263.222,72.367 258.362,72.299 255.324 C 72.231 252.286,72.175 254.660,72.175 260.600 M115.491 319.489 C 116.201 319.577,117.461 319.579,118.291 319.492 C 119.121 319.405,118.540 319.333,117.000 319.331 C 115.460 319.329,114.781 319.400,115.491 319.489 M135.727 327.900 C 140.307 327.964,147.687 327.964,152.127 327.899 C 156.567 327.835,152.820 327.783,143.800 327.783 C 134.780 327.783,131.147 327.835,135.727 327.900 M180.900 327.900 C 189.205 327.960,202.795 327.960,211.100 327.900 C 219.405 327.839,212.610 327.790,196.000 327.790 C 179.390 327.790,172.595 327.839,180.900 327.900 " stroke="none" fill="#7c7c7c" fill-rule="evenodd"></path><path id="path3" d="M105.900 72.297 C 107.495 72.373,110.105 72.373,111.700 72.297 C 113.295 72.221,111.990 72.159,108.800 72.159 C 105.610 72.159,104.305 72.221,105.900 72.297 M301.705 72.287 C 302.314 72.379,303.214 72.377,303.705 72.282 C 304.197 72.187,303.700 72.111,302.600 72.114 C 301.500 72.117,301.097 72.195,301.705 72.287 M122.400 74.925 C 122.400 74.994,122.985 75.579,123.700 76.225 L 125.000 77.400 123.825 76.100 C 122.730 74.888,122.400 74.616,122.400 74.925 M313.983 78.500 C 314.964 79.545,315.819 80.400,315.883 80.400 C 316.184 80.400,315.866 80.041,314.100 78.383 L 312.200 76.600 313.983 78.500 M290.581 78.900 L 289.000 80.600 290.700 79.019 C 291.635 78.149,292.400 77.384,292.400 77.319 C 292.400 77.016,292.052 77.319,290.581 78.900 M105.700 80.691 C 106.525 80.778,107.875 80.778,108.700 80.691 C 109.525 80.605,108.850 80.534,107.200 80.534 C 105.550 80.534,104.875 80.605,105.700 80.691 M117.299 81.816 L 118.798 83.432 118.900 160.616 L 119.002 237.800 119.101 160.581 L 119.200 83.362 117.500 81.781 L 115.800 80.200 117.299 81.816 M295.996 85.004 L 293.011 88.009 302.504 97.502 L 311.997 106.995 314.499 104.402 L 317.000 101.809 314.494 104.197 L 311.988 106.586 302.700 97.298 L 293.411 88.009 296.396 85.004 C 298.037 83.352,299.290 82.000,299.180 82.000 C 299.070 82.000,297.637 83.352,295.996 85.004 M320.783 85.300 C 321.764 86.345,322.619 87.200,322.683 87.200 C 322.984 87.200,322.666 86.841,320.900 85.183 L 319.000 83.400 320.783 85.300 M327.714 97.400 C 327.717 98.500,327.795 98.903,327.887 98.295 C 327.979 97.686,327.977 96.786,327.882 96.295 C 327.787 95.803,327.711 96.300,327.714 97.400 M282.400 98.600 C 281.428 99.590,280.723 100.400,280.833 100.400 C 280.943 100.400,281.828 99.590,282.800 98.600 C 283.772 97.610,284.477 96.800,284.367 96.800 C 284.257 96.800,283.372 97.610,282.400 98.600 M293.000 100.000 C 294.750 101.760,296.271 103.200,296.381 103.200 C 296.491 103.200,295.150 101.760,293.400 100.000 C 291.650 98.240,290.129 96.800,290.019 96.800 C 289.909 96.800,291.250 98.240,293.000 100.000 M127.375 110.800 C 127.375 116.850,127.431 119.325,127.499 116.300 C 127.567 113.275,127.567 108.325,127.499 105.300 C 127.431 102.275,127.375 104.750,127.375 110.800 M72.193 147.000 C 72.193 171.640,72.241 181.661,72.300 169.269 C 72.359 156.877,72.359 136.717,72.300 124.469 C 72.241 112.221,72.193 122.360,72.193 147.000 M299.800 106.800 C 301.328 108.340,302.669 109.600,302.779 109.600 C 302.889 109.600,301.728 108.340,300.200 106.800 C 298.672 105.260,297.331 104.000,297.221 104.000 C 297.111 104.000,298.272 105.260,299.800 106.800 M251.399 129.700 L 228.200 153.000 251.500 129.801 C 264.315 117.042,274.800 106.557,274.800 106.501 C 274.800 106.220,272.963 108.041,251.399 129.700 M301.385 117.300 L 299.400 119.400 301.500 117.415 C 303.451 115.571,303.783 115.200,303.485 115.200 C 303.422 115.200,302.477 116.145,301.385 117.300 M303.092 127.508 C 299.176 131.442,299.077 131.624,300.900 131.540 C 302.193 131.480,302.194 131.479,301.041 131.308 C 299.894 131.137,299.920 131.096,303.432 127.568 C 305.385 125.605,306.893 124.000,306.783 124.000 C 306.673 124.000,305.012 125.579,303.092 127.508 M270.199 148.500 L 247.000 171.800 270.300 148.601 C 283.115 135.842,293.600 125.357,293.600 125.301 C 293.600 125.020,291.763 126.841,270.199 148.500 M313.500 131.882 C 313.995 131.978,314.805 131.978,315.300 131.882 C 315.795 131.787,315.390 131.709,314.400 131.709 C 313.410 131.709,313.005 131.787,313.500 131.882 M80.593 179.200 C 80.593 204.170,80.641 214.385,80.700 201.900 C 80.759 189.415,80.759 168.985,80.700 156.500 C 80.641 144.015,80.593 154.230,80.593 179.200 M312.905 140.687 C 313.514 140.779,314.414 140.777,314.905 140.682 C 315.397 140.587,314.900 140.511,313.800 140.514 C 312.700 140.517,312.297 140.595,312.905 140.687 M226.581 142.500 L 225.000 144.200 226.700 142.619 C 228.281 141.148,228.584 140.800,228.281 140.800 C 228.216 140.800,227.451 141.565,226.581 142.500 M287.381 143.300 L 285.800 145.000 287.500 143.419 C 289.081 141.948,289.384 141.600,289.081 141.600 C 289.016 141.600,288.251 142.365,287.381 143.300 M327.755 157.000 C 327.756 159.860,327.820 160.978,327.897 159.483 C 327.974 157.989,327.974 155.649,327.896 154.283 C 327.818 152.918,327.755 154.140,327.755 157.000 M237.400 162.400 C 242.456 167.460,246.683 171.600,246.793 171.600 C 246.903 171.600,242.856 167.460,237.800 162.400 C 232.744 157.340,228.517 153.200,228.407 153.200 C 228.297 153.200,232.344 157.340,237.400 162.400 M228.200 165.200 C 229.728 166.740,231.069 168.000,231.179 168.000 C 231.289 168.000,230.128 166.740,228.600 165.200 C 227.072 163.660,225.731 162.400,225.621 162.400 C 225.511 162.400,226.672 163.660,228.200 165.200 M212.901 176.200 C 212.905 177.080,212.987 177.393,213.083 176.895 C 213.179 176.398,213.175 175.678,213.075 175.295 C 212.975 174.913,212.896 175.320,212.901 176.200 M319.393 223.000 C 319.393 248.740,319.441 259.211,319.500 246.269 C 319.559 233.327,319.558 212.267,319.500 199.469 C 319.441 186.671,319.393 197.260,319.393 223.000 M251.578 178.700 L 250.200 180.200 251.700 178.822 C 253.096 177.538,253.384 177.200,253.078 177.200 C 253.012 177.200,252.337 177.875,251.578 178.700 M227.300 178.276 C 227.685 178.376,228.315 178.376,228.700 178.276 C 229.085 178.175,228.770 178.093,228.000 178.093 C 227.230 178.093,226.915 178.175,227.300 178.276 M173.100 178.700 C 179.095 178.762,188.905 178.762,194.900 178.700 C 200.895 178.638,195.990 178.587,184.000 178.587 C 172.010 178.587,167.105 178.638,173.100 178.700 M220.900 186.691 C 221.725 186.778,223.075 186.778,223.900 186.691 C 224.725 186.605,224.050 186.534,222.400 186.534 C 220.750 186.534,220.075 186.605,220.900 186.691 M146.898 187.094 L 152.797 187.221 152.901 235.011 L 153.005 282.800 153.002 234.900 L 153.000 187.000 147.000 186.983 L 141.000 186.966 146.898 187.094 M185.521 187.099 C 187.788 187.170,191.388 187.170,193.521 187.098 C 195.655 187.026,193.800 186.968,189.400 186.968 C 185.000 186.968,183.255 187.027,185.521 187.099 M127.385 228.400 C 127.385 238.850,127.436 243.125,127.500 237.900 C 127.563 232.675,127.563 224.125,127.500 218.900 C 127.436 213.675,127.385 217.950,127.385 228.400 M327.789 260.200 C 327.789 274.500,327.839 280.292,327.900 273.071 C 327.961 265.850,327.961 254.150,327.900 247.071 C 327.839 239.992,327.789 245.900,327.789 260.200 M216.993 259.600 L 217.000 277.000 240.400 277.005 L 263.800 277.010 240.504 276.902 L 217.208 276.794 217.098 259.497 L 216.987 242.200 216.993 259.600 M118.493 253.200 C 118.493 253.970,118.575 254.285,118.676 253.900 C 118.776 253.515,118.776 252.885,118.676 252.500 C 118.575 252.115,118.493 252.430,118.493 253.200 M113.905 259.483 C 114.402 259.579,115.122 259.575,115.505 259.475 C 115.887 259.375,115.480 259.296,114.600 259.301 C 113.720 259.305,113.407 259.387,113.905 259.483 M104.700 268.682 C 105.195 268.778,106.005 268.778,106.500 268.682 C 106.995 268.587,106.590 268.509,105.600 268.509 C 104.610 268.509,104.205 268.587,104.700 268.682 M72.173 281.600 C 72.173 286.990,72.230 289.195,72.299 286.500 C 72.368 283.805,72.368 279.395,72.299 276.700 C 72.230 274.005,72.173 276.210,72.173 281.600 M272.109 276.000 C 272.109 276.990,272.187 277.395,272.282 276.900 C 272.378 276.405,272.378 275.595,272.282 275.100 C 272.187 274.605,272.109 275.010,272.109 276.000 M176.162 277.700 C 175.402 278.598,175.402 278.599,176.226 277.905 C 176.975 277.274,178.526 277.199,192.826 277.100 L 208.600 276.990 192.762 276.895 L 176.924 276.800 176.162 277.700 M217.329 285.500 C 224.110 285.561,235.090 285.561,241.729 285.500 C 248.368 285.438,242.820 285.388,229.400 285.388 C 215.980 285.388,210.548 285.438,217.329 285.500 M80.514 293.400 C 80.517 294.500,80.595 294.903,80.687 294.295 C 80.779 293.686,80.777 292.786,80.682 292.295 C 80.587 291.803,80.511 292.300,80.514 293.400 M327.309 315.600 C 327.309 316.590,327.387 316.995,327.482 316.500 C 327.578 316.005,327.578 315.195,327.482 314.700 C 327.387 314.205,327.309 314.610,327.309 315.600 M102.900 319.076 C 103.285 319.176,103.915 319.176,104.300 319.076 C 104.685 318.975,104.370 318.893,103.600 318.893 C 102.830 318.893,102.515 318.975,102.900 319.076 M127.700 319.500 C 132.265 319.564,139.735 319.564,144.300 319.500 C 148.865 319.435,145.130 319.383,136.000 319.383 C 126.870 319.383,123.135 319.435,127.700 319.500 M113.700 327.899 C 116.285 327.968,120.515 327.968,123.100 327.899 C 125.685 327.829,123.570 327.772,118.400 327.772 C 113.230 327.772,111.115 327.829,113.700 327.899 M249.100 327.900 C 261.915 327.959,282.885 327.959,295.700 327.900 C 308.515 327.841,298.030 327.793,272.400 327.793 C 246.770 327.793,236.285 327.841,249.100 327.900 " stroke="none" fill="#a0a0a0" fill-rule="evenodd"></path><path id="path4" d="M278.996 90.500 L 271.000 98.600 279.100 90.604 C 286.626 83.174,287.381 82.400,287.096 82.400 C 287.039 82.400,283.394 86.045,278.996 90.500 M87.978 87.900 L 86.600 89.400 88.100 88.022 C 89.496 86.738,89.784 86.400,89.478 86.400 C 89.412 86.400,88.737 87.075,87.978 87.900 M311.800 88.000 C 312.659 88.880,313.452 89.600,313.562 89.600 C 313.672 89.600,313.059 88.880,312.200 88.000 C 311.341 87.120,310.548 86.400,310.438 86.400 C 310.328 86.400,310.941 87.120,311.800 88.000 M80.565 107.600 C 80.565 111.450,80.625 113.025,80.698 111.100 C 80.771 109.175,80.771 106.025,80.698 104.100 C 80.625 102.175,80.565 103.750,80.565 107.600 M282.000 102.200 C 282.746 102.970,283.447 103.600,283.557 103.600 C 283.667 103.600,283.146 102.970,282.400 102.200 C 281.654 101.430,280.953 100.800,280.843 100.800 C 280.733 100.800,281.254 101.430,282.000 102.200 M317.791 112.500 L 314.600 115.800 317.900 112.609 C 319.715 110.855,321.200 109.370,321.200 109.309 C 321.200 109.018,320.754 109.435,317.791 112.500 M297.400 117.600 C 298.259 118.480,299.052 119.200,299.162 119.200 C 299.272 119.200,298.659 118.480,297.800 117.600 C 296.941 116.720,296.148 116.000,296.038 116.000 C 295.928 116.000,296.541 116.720,297.400 117.600 M127.320 129.600 C 127.320 130.810,127.395 131.305,127.487 130.700 C 127.578 130.095,127.578 129.105,127.487 128.500 C 127.395 127.895,127.320 128.390,127.320 129.600 M319.367 149.800 C 319.367 153.980,319.426 155.636,319.498 153.479 C 319.571 151.323,319.570 147.903,319.498 145.879 C 319.425 143.856,319.366 145.620,319.367 149.800 M221.178 148.300 L 219.800 149.800 221.300 148.422 C 222.696 147.138,222.984 146.800,222.678 146.800 C 222.612 146.800,221.937 147.475,221.178 148.300 M327.780 184.800 C 327.780 192.610,327.834 195.805,327.899 191.900 C 327.965 187.995,327.965 181.605,327.899 177.700 C 327.834 173.795,327.780 176.990,327.780 184.800 M256.585 173.700 L 254.600 175.800 256.700 173.815 C 258.651 171.971,258.983 171.600,258.685 171.600 C 258.622 171.600,257.677 172.545,256.585 173.700 M213.705 186.687 C 214.314 186.779,215.214 186.777,215.705 186.682 C 216.197 186.587,215.700 186.511,214.600 186.514 C 213.500 186.517,213.097 186.595,213.705 186.687 M170.700 187.093 C 171.635 187.177,173.165 187.177,174.100 187.093 C 175.035 187.009,174.270 186.940,172.400 186.940 C 170.530 186.940,169.765 187.009,170.700 187.093 M161.364 221.400 C 161.363 225.140,161.423 226.724,161.497 224.920 C 161.571 223.115,161.572 220.055,161.498 218.120 C 161.425 216.184,161.364 217.660,161.364 221.400 M72.174 239.800 C 72.175 245.520,72.231 247.804,72.299 244.876 C 72.368 241.948,72.367 237.268,72.299 234.476 C 72.230 231.684,72.174 234.080,72.174 239.800 M118.920 242.400 C 118.920 243.610,118.995 244.105,119.087 243.500 C 119.178 242.895,119.178 241.905,119.087 241.300 C 118.995 240.695,118.920 241.190,118.920 242.400 M272.109 271.600 C 272.109 272.590,272.187 272.995,272.282 272.500 C 272.378 272.005,272.378 271.195,272.282 270.700 C 272.187 270.205,272.109 270.610,272.109 271.600 M153.293 297.600 C 153.293 298.370,153.375 298.685,153.476 298.300 C 153.576 297.915,153.576 297.285,153.476 296.900 C 153.375 296.515,153.293 296.830,153.293 297.600 M327.301 311.000 C 327.305 311.880,327.387 312.193,327.483 311.695 C 327.579 311.198,327.575 310.478,327.475 310.095 C 327.375 309.713,327.296 310.120,327.301 311.000 M111.900 319.482 C 112.395 319.578,113.205 319.578,113.700 319.482 C 114.195 319.387,113.790 319.309,112.800 319.309 C 111.810 319.309,111.405 319.387,111.900 319.482 M161.511 327.893 C 162.451 327.978,163.891 327.977,164.711 327.891 C 165.530 327.805,164.760 327.736,163.000 327.737 C 161.240 327.739,160.570 327.809,161.511 327.893 " stroke="none" fill="#747474" fill-rule="evenodd"></path></g></svg>